<mxfile host="Electron" agent="Mozilla/5.0 (Windows NT 10.0; Win64; x64) AppleWebKit/537.36 (KHTML, like Gecko) draw.io/28.0.4 Chrome/138.0.7204.97 Electron/37.2.1 Safari/537.36" version="28.0.4">
  <diagram name="第 1 页" id="mXXJtRQOIAk-y63agnJB">
    <mxGraphModel dx="1701" dy="996" grid="1" gridSize="10" guides="1" tooltips="1" connect="1" arrows="1" fold="1" page="1" pageScale="1" pageWidth="2339" pageHeight="3300" math="0" shadow="0">
      <root>
        <mxCell id="0" />
        <mxCell id="1" parent="0" />
        <mxCell id="KLF6bR-u0PDEBaUB7QFk-12" value="" style="group" vertex="1" connectable="0" parent="1">
          <mxGeometry x="120" y="80" width="230" height="540" as="geometry" />
        </mxCell>
        <mxCell id="KLF6bR-u0PDEBaUB7QFk-10" value="" style="rounded=1;whiteSpace=wrap;html=1;" vertex="1" parent="KLF6bR-u0PDEBaUB7QFk-12">
          <mxGeometry width="230" height="540" as="geometry" />
        </mxCell>
        <mxCell id="KLF6bR-u0PDEBaUB7QFk-3" value="" style="edgeStyle=orthogonalEdgeStyle;rounded=0;orthogonalLoop=1;jettySize=auto;html=1;" edge="1" parent="KLF6bR-u0PDEBaUB7QFk-12" source="KLF6bR-u0PDEBaUB7QFk-1" target="KLF6bR-u0PDEBaUB7QFk-2">
          <mxGeometry relative="1" as="geometry" />
        </mxCell>
        <mxCell id="KLF6bR-u0PDEBaUB7QFk-1" value="创建短链接" style="rounded=1;whiteSpace=wrap;html=1;" vertex="1" parent="KLF6bR-u0PDEBaUB7QFk-12">
          <mxGeometry x="55" y="50" width="120" height="60" as="geometry" />
        </mxCell>
        <mxCell id="KLF6bR-u0PDEBaUB7QFk-5" value="" style="edgeStyle=orthogonalEdgeStyle;rounded=0;orthogonalLoop=1;jettySize=auto;html=1;" edge="1" parent="KLF6bR-u0PDEBaUB7QFk-12" source="KLF6bR-u0PDEBaUB7QFk-2" target="KLF6bR-u0PDEBaUB7QFk-4">
          <mxGeometry relative="1" as="geometry" />
        </mxCell>
        <mxCell id="KLF6bR-u0PDEBaUB7QFk-2" value="加入本地缓存" style="rounded=1;whiteSpace=wrap;html=1;" vertex="1" parent="KLF6bR-u0PDEBaUB7QFk-12">
          <mxGeometry x="55" y="150" width="120" height="60" as="geometry" />
        </mxCell>
        <mxCell id="KLF6bR-u0PDEBaUB7QFk-7" value="" style="edgeStyle=orthogonalEdgeStyle;rounded=0;orthogonalLoop=1;jettySize=auto;html=1;" edge="1" parent="KLF6bR-u0PDEBaUB7QFk-12" source="KLF6bR-u0PDEBaUB7QFk-4" target="KLF6bR-u0PDEBaUB7QFk-6">
          <mxGeometry relative="1" as="geometry" />
        </mxCell>
        <mxCell id="KLF6bR-u0PDEBaUB7QFk-4" value="加入Redis缓存" style="rounded=1;whiteSpace=wrap;html=1;" vertex="1" parent="KLF6bR-u0PDEBaUB7QFk-12">
          <mxGeometry x="55" y="250" width="120" height="60" as="geometry" />
        </mxCell>
        <mxCell id="KLF6bR-u0PDEBaUB7QFk-9" value="" style="edgeStyle=orthogonalEdgeStyle;rounded=0;orthogonalLoop=1;jettySize=auto;html=1;" edge="1" parent="KLF6bR-u0PDEBaUB7QFk-12" source="KLF6bR-u0PDEBaUB7QFk-6" target="KLF6bR-u0PDEBaUB7QFk-8">
          <mxGeometry relative="1" as="geometry" />
        </mxCell>
        <mxCell id="KLF6bR-u0PDEBaUB7QFk-6" value="加入本地布隆过滤器" style="rounded=1;whiteSpace=wrap;html=1;" vertex="1" parent="KLF6bR-u0PDEBaUB7QFk-12">
          <mxGeometry x="55" y="350" width="120" height="60" as="geometry" />
        </mxCell>
        <mxCell id="KLF6bR-u0PDEBaUB7QFk-8" value="加入Redisson布隆过滤器" style="whiteSpace=wrap;html=1;rounded=1;" vertex="1" parent="KLF6bR-u0PDEBaUB7QFk-12">
          <mxGeometry x="55" y="450" width="120" height="60" as="geometry" />
        </mxCell>
        <mxCell id="KLF6bR-u0PDEBaUB7QFk-11" value="短链接创建流程" style="text;html=1;align=center;verticalAlign=middle;whiteSpace=wrap;rounded=0;" vertex="1" parent="KLF6bR-u0PDEBaUB7QFk-12">
          <mxGeometry x="65" y="10" width="100" height="30" as="geometry" />
        </mxCell>
        <mxCell id="KLF6bR-u0PDEBaUB7QFk-23" value="404" style="whiteSpace=wrap;html=1;rounded=1;" vertex="1" parent="1">
          <mxGeometry x="1260" y="250" width="120" height="60" as="geometry" />
        </mxCell>
        <mxCell id="KLF6bR-u0PDEBaUB7QFk-69" value="" style="group" vertex="1" connectable="0" parent="1">
          <mxGeometry x="950" y="110" width="300" height="1680" as="geometry" />
        </mxCell>
        <mxCell id="KLF6bR-u0PDEBaUB7QFk-15" value="" style="edgeStyle=orthogonalEdgeStyle;rounded=0;orthogonalLoop=1;jettySize=auto;html=1;" edge="1" parent="KLF6bR-u0PDEBaUB7QFk-69" source="KLF6bR-u0PDEBaUB7QFk-13" target="KLF6bR-u0PDEBaUB7QFk-14">
          <mxGeometry relative="1" as="geometry" />
        </mxCell>
        <mxCell id="KLF6bR-u0PDEBaUB7QFk-13" value="访问本地缓存" style="rounded=1;whiteSpace=wrap;html=1;" vertex="1" parent="KLF6bR-u0PDEBaUB7QFk-69">
          <mxGeometry width="120" height="60" as="geometry" />
        </mxCell>
        <mxCell id="KLF6bR-u0PDEBaUB7QFk-21" value="" style="edgeStyle=orthogonalEdgeStyle;rounded=0;orthogonalLoop=1;jettySize=auto;html=1;" edge="1" parent="KLF6bR-u0PDEBaUB7QFk-69" source="KLF6bR-u0PDEBaUB7QFk-14" target="KLF6bR-u0PDEBaUB7QFk-20">
          <mxGeometry relative="1" as="geometry" />
        </mxCell>
        <mxCell id="KLF6bR-u0PDEBaUB7QFk-29" value="" style="edgeStyle=orthogonalEdgeStyle;rounded=0;orthogonalLoop=1;jettySize=auto;html=1;" edge="1" parent="KLF6bR-u0PDEBaUB7QFk-69" source="KLF6bR-u0PDEBaUB7QFk-14" target="KLF6bR-u0PDEBaUB7QFk-28">
          <mxGeometry relative="1" as="geometry" />
        </mxCell>
        <mxCell id="KLF6bR-u0PDEBaUB7QFk-14" value="是否命中" style="rhombus;whiteSpace=wrap;html=1;rounded=1;" vertex="1" parent="KLF6bR-u0PDEBaUB7QFk-69">
          <mxGeometry x="20" y="130" width="80" height="80" as="geometry" />
        </mxCell>
        <mxCell id="KLF6bR-u0PDEBaUB7QFk-16" value="返回原始链接" style="whiteSpace=wrap;html=1;rounded=1;" vertex="1" parent="KLF6bR-u0PDEBaUB7QFk-69">
          <mxGeometry x="150" width="120" height="60" as="geometry" />
        </mxCell>
        <mxCell id="KLF6bR-u0PDEBaUB7QFk-24" value="" style="edgeStyle=orthogonalEdgeStyle;rounded=0;orthogonalLoop=1;jettySize=auto;html=1;" edge="1" parent="KLF6bR-u0PDEBaUB7QFk-69" source="KLF6bR-u0PDEBaUB7QFk-20" target="KLF6bR-u0PDEBaUB7QFk-23">
          <mxGeometry relative="1" as="geometry" />
        </mxCell>
        <mxCell id="KLF6bR-u0PDEBaUB7QFk-26" value="" style="edgeStyle=orthogonalEdgeStyle;rounded=0;orthogonalLoop=1;jettySize=auto;html=1;" edge="1" parent="KLF6bR-u0PDEBaUB7QFk-69" source="KLF6bR-u0PDEBaUB7QFk-20" target="KLF6bR-u0PDEBaUB7QFk-16">
          <mxGeometry relative="1" as="geometry" />
        </mxCell>
        <mxCell id="KLF6bR-u0PDEBaUB7QFk-20" value="是否空值" style="rhombus;whiteSpace=wrap;html=1;rounded=1;" vertex="1" parent="KLF6bR-u0PDEBaUB7QFk-69">
          <mxGeometry x="170" y="130" width="80" height="80" as="geometry" />
        </mxCell>
        <mxCell id="KLF6bR-u0PDEBaUB7QFk-25" value="是" style="text;html=1;align=center;verticalAlign=middle;resizable=0;points=[];autosize=1;strokeColor=none;fillColor=none;" vertex="1" parent="KLF6bR-u0PDEBaUB7QFk-69">
          <mxGeometry x="260" y="140" width="40" height="30" as="geometry" />
        </mxCell>
        <mxCell id="KLF6bR-u0PDEBaUB7QFk-27" value="否" style="text;html=1;align=center;verticalAlign=middle;resizable=0;points=[];autosize=1;strokeColor=none;fillColor=none;" vertex="1" parent="KLF6bR-u0PDEBaUB7QFk-69">
          <mxGeometry x="210" y="78" width="40" height="30" as="geometry" />
        </mxCell>
        <mxCell id="KLF6bR-u0PDEBaUB7QFk-34" value="" style="edgeStyle=orthogonalEdgeStyle;rounded=0;orthogonalLoop=1;jettySize=auto;html=1;" edge="1" parent="KLF6bR-u0PDEBaUB7QFk-69" source="KLF6bR-u0PDEBaUB7QFk-28" target="KLF6bR-u0PDEBaUB7QFk-33">
          <mxGeometry relative="1" as="geometry" />
        </mxCell>
        <mxCell id="KLF6bR-u0PDEBaUB7QFk-28" value="查询本地布隆过滤器" style="whiteSpace=wrap;html=1;rounded=1;" vertex="1" parent="KLF6bR-u0PDEBaUB7QFk-69">
          <mxGeometry y="300" width="120" height="60" as="geometry" />
        </mxCell>
        <mxCell id="KLF6bR-u0PDEBaUB7QFk-30" value="未命中" style="text;html=1;align=center;verticalAlign=middle;resizable=0;points=[];autosize=1;strokeColor=none;fillColor=none;" vertex="1" parent="KLF6bR-u0PDEBaUB7QFk-69">
          <mxGeometry x="60" y="225" width="60" height="30" as="geometry" />
        </mxCell>
        <mxCell id="KLF6bR-u0PDEBaUB7QFk-31" value="命中" style="text;html=1;align=center;verticalAlign=middle;resizable=0;points=[];autosize=1;strokeColor=none;fillColor=none;" vertex="1" parent="KLF6bR-u0PDEBaUB7QFk-69">
          <mxGeometry x="105" y="140" width="50" height="30" as="geometry" />
        </mxCell>
        <mxCell id="KLF6bR-u0PDEBaUB7QFk-35" style="edgeStyle=orthogonalEdgeStyle;rounded=0;orthogonalLoop=1;jettySize=auto;html=1;entryX=0.5;entryY=1;entryDx=0;entryDy=0;" edge="1" parent="KLF6bR-u0PDEBaUB7QFk-69" source="KLF6bR-u0PDEBaUB7QFk-33" target="KLF6bR-u0PDEBaUB7QFk-23">
          <mxGeometry relative="1" as="geometry" />
        </mxCell>
        <mxCell id="KLF6bR-u0PDEBaUB7QFk-38" value="" style="edgeStyle=orthogonalEdgeStyle;rounded=0;orthogonalLoop=1;jettySize=auto;html=1;" edge="1" parent="KLF6bR-u0PDEBaUB7QFk-69" source="KLF6bR-u0PDEBaUB7QFk-33" target="KLF6bR-u0PDEBaUB7QFk-37">
          <mxGeometry relative="1" as="geometry" />
        </mxCell>
        <mxCell id="KLF6bR-u0PDEBaUB7QFk-33" value="是否包含" style="rhombus;whiteSpace=wrap;html=1;rounded=1;" vertex="1" parent="KLF6bR-u0PDEBaUB7QFk-69">
          <mxGeometry x="20" y="430" width="80" height="80" as="geometry" />
        </mxCell>
        <mxCell id="KLF6bR-u0PDEBaUB7QFk-36" value="不包含" style="text;html=1;align=center;verticalAlign=middle;resizable=0;points=[];autosize=1;strokeColor=none;fillColor=none;" vertex="1" parent="KLF6bR-u0PDEBaUB7QFk-69">
          <mxGeometry x="170" y="438" width="60" height="30" as="geometry" />
        </mxCell>
        <mxCell id="KLF6bR-u0PDEBaUB7QFk-42" value="" style="edgeStyle=orthogonalEdgeStyle;rounded=0;orthogonalLoop=1;jettySize=auto;html=1;" edge="1" parent="KLF6bR-u0PDEBaUB7QFk-69" source="KLF6bR-u0PDEBaUB7QFk-37" target="KLF6bR-u0PDEBaUB7QFk-41">
          <mxGeometry relative="1" as="geometry" />
        </mxCell>
        <mxCell id="KLF6bR-u0PDEBaUB7QFk-37" value="查询Redis缓存" style="whiteSpace=wrap;html=1;rounded=1;" vertex="1" parent="KLF6bR-u0PDEBaUB7QFk-69">
          <mxGeometry y="580" width="120" height="60" as="geometry" />
        </mxCell>
        <mxCell id="KLF6bR-u0PDEBaUB7QFk-44" value="" style="edgeStyle=orthogonalEdgeStyle;rounded=0;orthogonalLoop=1;jettySize=auto;html=1;" edge="1" parent="KLF6bR-u0PDEBaUB7QFk-69" source="KLF6bR-u0PDEBaUB7QFk-41" target="KLF6bR-u0PDEBaUB7QFk-43">
          <mxGeometry relative="1" as="geometry" />
        </mxCell>
        <mxCell id="KLF6bR-u0PDEBaUB7QFk-51" value="" style="edgeStyle=orthogonalEdgeStyle;rounded=0;orthogonalLoop=1;jettySize=auto;html=1;" edge="1" parent="KLF6bR-u0PDEBaUB7QFk-69" source="KLF6bR-u0PDEBaUB7QFk-41" target="KLF6bR-u0PDEBaUB7QFk-50">
          <mxGeometry relative="1" as="geometry" />
        </mxCell>
        <mxCell id="KLF6bR-u0PDEBaUB7QFk-41" value="是否命中" style="rhombus;whiteSpace=wrap;html=1;rounded=1;" vertex="1" parent="KLF6bR-u0PDEBaUB7QFk-69">
          <mxGeometry x="20" y="710" width="80" height="80" as="geometry" />
        </mxCell>
        <mxCell id="KLF6bR-u0PDEBaUB7QFk-46" style="edgeStyle=orthogonalEdgeStyle;rounded=0;orthogonalLoop=1;jettySize=auto;html=1;entryX=0.75;entryY=1;entryDx=0;entryDy=0;" edge="1" parent="KLF6bR-u0PDEBaUB7QFk-69" source="KLF6bR-u0PDEBaUB7QFk-43" target="KLF6bR-u0PDEBaUB7QFk-16">
          <mxGeometry relative="1" as="geometry">
            <Array as="points">
              <mxPoint x="210" y="340" />
              <mxPoint x="240" y="340" />
            </Array>
          </mxGeometry>
        </mxCell>
        <mxCell id="KLF6bR-u0PDEBaUB7QFk-48" style="edgeStyle=orthogonalEdgeStyle;rounded=0;orthogonalLoop=1;jettySize=auto;html=1;exitX=1;exitY=0.5;exitDx=0;exitDy=0;entryX=0.5;entryY=1;entryDx=0;entryDy=0;" edge="1" parent="KLF6bR-u0PDEBaUB7QFk-69" source="KLF6bR-u0PDEBaUB7QFk-43" target="KLF6bR-u0PDEBaUB7QFk-23">
          <mxGeometry relative="1" as="geometry" />
        </mxCell>
        <mxCell id="KLF6bR-u0PDEBaUB7QFk-43" value="是否空置" style="rhombus;whiteSpace=wrap;html=1;rounded=1;" vertex="1" parent="KLF6bR-u0PDEBaUB7QFk-69">
          <mxGeometry x="170" y="710" width="80" height="80" as="geometry" />
        </mxCell>
        <mxCell id="KLF6bR-u0PDEBaUB7QFk-45" value="命中" style="text;html=1;align=center;verticalAlign=middle;resizable=0;points=[];autosize=1;strokeColor=none;fillColor=none;" vertex="1" parent="KLF6bR-u0PDEBaUB7QFk-69">
          <mxGeometry x="105" y="718" width="50" height="30" as="geometry" />
        </mxCell>
        <mxCell id="KLF6bR-u0PDEBaUB7QFk-47" value="否" style="text;html=1;align=center;verticalAlign=middle;resizable=0;points=[];autosize=1;strokeColor=none;fillColor=none;" vertex="1" parent="KLF6bR-u0PDEBaUB7QFk-69">
          <mxGeometry x="210" y="628" width="40" height="30" as="geometry" />
        </mxCell>
        <mxCell id="KLF6bR-u0PDEBaUB7QFk-49" value="是" style="text;html=1;align=center;verticalAlign=middle;resizable=0;points=[];autosize=1;strokeColor=none;fillColor=none;" vertex="1" parent="KLF6bR-u0PDEBaUB7QFk-69">
          <mxGeometry x="260" y="718" width="40" height="30" as="geometry" />
        </mxCell>
        <mxCell id="KLF6bR-u0PDEBaUB7QFk-54" value="" style="edgeStyle=orthogonalEdgeStyle;rounded=0;orthogonalLoop=1;jettySize=auto;html=1;" edge="1" parent="KLF6bR-u0PDEBaUB7QFk-69" source="KLF6bR-u0PDEBaUB7QFk-50" target="KLF6bR-u0PDEBaUB7QFk-53">
          <mxGeometry relative="1" as="geometry" />
        </mxCell>
        <mxCell id="KLF6bR-u0PDEBaUB7QFk-50" value="查询Redisson布隆过滤器" style="whiteSpace=wrap;html=1;rounded=1;" vertex="1" parent="KLF6bR-u0PDEBaUB7QFk-69">
          <mxGeometry y="880" width="120" height="60" as="geometry" />
        </mxCell>
        <mxCell id="KLF6bR-u0PDEBaUB7QFk-52" value="未命中" style="text;html=1;align=center;verticalAlign=middle;resizable=0;points=[];autosize=1;strokeColor=none;fillColor=none;" vertex="1" parent="KLF6bR-u0PDEBaUB7QFk-69">
          <mxGeometry x="60" y="810" width="60" height="30" as="geometry" />
        </mxCell>
        <mxCell id="KLF6bR-u0PDEBaUB7QFk-55" style="edgeStyle=orthogonalEdgeStyle;rounded=0;orthogonalLoop=1;jettySize=auto;html=1;exitX=1;exitY=0.5;exitDx=0;exitDy=0;entryX=0.5;entryY=1;entryDx=0;entryDy=0;" edge="1" parent="KLF6bR-u0PDEBaUB7QFk-69" source="KLF6bR-u0PDEBaUB7QFk-53" target="KLF6bR-u0PDEBaUB7QFk-23">
          <mxGeometry relative="1" as="geometry" />
        </mxCell>
        <mxCell id="KLF6bR-u0PDEBaUB7QFk-58" value="" style="edgeStyle=orthogonalEdgeStyle;rounded=0;orthogonalLoop=1;jettySize=auto;html=1;" edge="1" parent="KLF6bR-u0PDEBaUB7QFk-69" source="KLF6bR-u0PDEBaUB7QFk-53" target="KLF6bR-u0PDEBaUB7QFk-57">
          <mxGeometry relative="1" as="geometry" />
        </mxCell>
        <mxCell id="KLF6bR-u0PDEBaUB7QFk-53" value="是否包含" style="rhombus;whiteSpace=wrap;html=1;rounded=1;" vertex="1" parent="KLF6bR-u0PDEBaUB7QFk-69">
          <mxGeometry x="20" y="1010" width="80" height="80" as="geometry" />
        </mxCell>
        <mxCell id="KLF6bR-u0PDEBaUB7QFk-56" value="不包含" style="text;html=1;align=center;verticalAlign=middle;resizable=0;points=[];autosize=1;strokeColor=none;fillColor=none;" vertex="1" parent="KLF6bR-u0PDEBaUB7QFk-69">
          <mxGeometry x="170" y="1018" width="60" height="30" as="geometry" />
        </mxCell>
        <mxCell id="KLF6bR-u0PDEBaUB7QFk-61" value="" style="edgeStyle=orthogonalEdgeStyle;rounded=0;orthogonalLoop=1;jettySize=auto;html=1;" edge="1" parent="KLF6bR-u0PDEBaUB7QFk-69" source="KLF6bR-u0PDEBaUB7QFk-57" target="KLF6bR-u0PDEBaUB7QFk-60">
          <mxGeometry relative="1" as="geometry" />
        </mxCell>
        <mxCell id="KLF6bR-u0PDEBaUB7QFk-57" value="查询数据库" style="whiteSpace=wrap;html=1;rounded=1;" vertex="1" parent="KLF6bR-u0PDEBaUB7QFk-69">
          <mxGeometry y="1180" width="120" height="60" as="geometry" />
        </mxCell>
        <mxCell id="KLF6bR-u0PDEBaUB7QFk-59" value="包含" style="text;html=1;align=center;verticalAlign=middle;resizable=0;points=[];autosize=1;strokeColor=none;fillColor=none;" vertex="1" parent="KLF6bR-u0PDEBaUB7QFk-69">
          <mxGeometry x="60" y="1110" width="50" height="30" as="geometry" />
        </mxCell>
        <mxCell id="KLF6bR-u0PDEBaUB7QFk-65" value="" style="edgeStyle=orthogonalEdgeStyle;rounded=0;orthogonalLoop=1;jettySize=auto;html=1;" edge="1" parent="KLF6bR-u0PDEBaUB7QFk-69" source="KLF6bR-u0PDEBaUB7QFk-60" target="KLF6bR-u0PDEBaUB7QFk-64">
          <mxGeometry relative="1" as="geometry" />
        </mxCell>
        <mxCell id="KLF6bR-u0PDEBaUB7QFk-60" value="是否命中" style="rhombus;whiteSpace=wrap;html=1;rounded=1;" vertex="1" parent="KLF6bR-u0PDEBaUB7QFk-69">
          <mxGeometry x="20" y="1310" width="80" height="80" as="geometry" />
        </mxCell>
        <mxCell id="KLF6bR-u0PDEBaUB7QFk-62" style="edgeStyle=orthogonalEdgeStyle;rounded=0;orthogonalLoop=1;jettySize=auto;html=1;entryX=0.111;entryY=1.029;entryDx=0;entryDy=0;entryPerimeter=0;" edge="1" parent="KLF6bR-u0PDEBaUB7QFk-69" source="KLF6bR-u0PDEBaUB7QFk-60" target="KLF6bR-u0PDEBaUB7QFk-16">
          <mxGeometry relative="1" as="geometry" />
        </mxCell>
        <mxCell id="KLF6bR-u0PDEBaUB7QFk-63" value="命中" style="text;html=1;align=center;verticalAlign=middle;resizable=0;points=[];autosize=1;strokeColor=none;fillColor=none;" vertex="1" parent="KLF6bR-u0PDEBaUB7QFk-69">
          <mxGeometry x="105" y="1318" width="50" height="30" as="geometry" />
        </mxCell>
        <mxCell id="KLF6bR-u0PDEBaUB7QFk-67" value="" style="edgeStyle=orthogonalEdgeStyle;rounded=0;orthogonalLoop=1;jettySize=auto;html=1;" edge="1" parent="KLF6bR-u0PDEBaUB7QFk-69" source="KLF6bR-u0PDEBaUB7QFk-64" target="KLF6bR-u0PDEBaUB7QFk-66">
          <mxGeometry relative="1" as="geometry" />
        </mxCell>
        <mxCell id="KLF6bR-u0PDEBaUB7QFk-64" value="设置本地缓存空置" style="whiteSpace=wrap;html=1;rounded=1;" vertex="1" parent="KLF6bR-u0PDEBaUB7QFk-69">
          <mxGeometry y="1480" width="120" height="60" as="geometry" />
        </mxCell>
        <mxCell id="KLF6bR-u0PDEBaUB7QFk-68" style="edgeStyle=orthogonalEdgeStyle;rounded=0;orthogonalLoop=1;jettySize=auto;html=1;exitX=1;exitY=0.5;exitDx=0;exitDy=0;entryX=0.5;entryY=1;entryDx=0;entryDy=0;" edge="1" parent="KLF6bR-u0PDEBaUB7QFk-69" source="KLF6bR-u0PDEBaUB7QFk-66" target="KLF6bR-u0PDEBaUB7QFk-23">
          <mxGeometry relative="1" as="geometry" />
        </mxCell>
        <mxCell id="KLF6bR-u0PDEBaUB7QFk-66" value="设置Redis缓存空置" style="whiteSpace=wrap;html=1;rounded=1;" vertex="1" parent="KLF6bR-u0PDEBaUB7QFk-69">
          <mxGeometry y="1620" width="120" height="60" as="geometry" />
        </mxCell>
      </root>
    </mxGraphModel>
  </diagram>
</mxfile>
